<svg width="150" height="150" viewBox="0 0 150 150" fill="none" xmlns="http://www.w3.org/2000/svg">
<path d="M90.9335 30.1445C90.9335 37.2262 88.3191 46.969 84.4647 60.0615L81.7069 70.1173L90.4337 64.4172C107.022 52.7688 117.04 48.397 123.67 48.397C131.212 48.397 139 53.7864 139 64.5052C139 78.1402 124.443 82.0136 96.3379 82.4912L85.8298 82.9849L94.1169 89.5821C113.791 104.747 120.612 112.176 120.612 121.59C120.612 128.999 113.727 136.715 105.19 136.715C92.3632 136.715 86.5655 123.387 78.7502 100.757L74.7662 90.922L71.0183 100.757C62.2591 126.46 55.5174 136.479 44.343 136.479C35.334 136.479 28.9208 128.289 28.9208 121.354C28.9208 110.994 38.3369 102.382 55.6517 89.5821L63.9388 82.9849L53.6666 82.4912C23.8171 82.2501 11 77.957 11 64.2688C11 53.55 19.028 48.1605 26.4268 48.1605C35.3617 48.1605 45.1064 54.1875 59.5708 64.4172L68.2976 70.1173L65.5398 60.0615C61.3616 46.2597 59.3996 36.1344 59.3996 30.1445C59.3996 20.7678 64.6838 13 75.0023 13C85.5567 13 90.9335 20.7678 90.9335 30.1445Z" fill="black"/>
</svg>
